# xmcd CD database file
#
# Track frame offsets:
#	150
#	19419
#	40019
#	58418
#	77155
#	94377
#	121419
#	145053
#	167660
#	185672
#
# Disc length: 2653 seconds
#
# Revision: 0
# Processed by: cddbd v1.5.2PL0 Copyright (c) Steve Scherf et al.
# Submitted via: CDex 1.51
#
DISCID=8c0a5b0a
DTITLE=Anders Osborne - American Patchwork
DYEAR=2010
DGENRE=Blues
TTITLE0=On The Road To Charlie Parker
TTITLE1=Echoes Of My Sins
TTITLE2=Got Your Heart
TTITLE3=Killing Each Other
TTITLE4=Acapulco
TTITLE5=Darkness At The Bottom
TTITLE6=Standing With Angels
TTITLE7=Love Is Taking Its Toll
TTITLE8=Meet Me In New Mexico
TTITLE9=Anders Osborne - Call On Me
EXTD=YEAR: 2010
EXTT0=
EXTT1=
EXTT2=
EXTT3=
EXTT4=
EXTT5=
EXTT6=
EXTT7=
EXTT8=
EXTT9=
PLAYORDER=
